# xmcd
#
# Track frame offsets: 
#        150
#        14332
#        31020
#        46152
#        64037
#        76067
#        95197
#        111260
#        126922
#        147945
#        167305
#        182255
#        195280
#        210865
#        223510
#        251945
#
# Disc length: 3569 seconds
#
# Revision: 4
# Processed by: cddbd v1.5.2PL0 Copyright (c) Steve Scherf et al.
# Submitted via: ExactAudioCopy v1.3
#
DISCID=cc0def10
DTITLE=Blondie - Eat To The Beat +4 24bit Remaster TOCP-53213
DYEAR=1979
DGENRE=Rock
TTITLE0=Dreaming
TTITLE1=The Hardest Part
TTITLE2=Union City Blue
TTITLE3=Shayla
TTITLE4=Eat To The Beat
TTITLE5=Accidents Never Happen
TTITLE6=Die Young Stay Pretty
TTITLE7=Slow Motion
TTITLE8=Atomic
TTITLE9=Sound-A-Sleep
TTITLE10=Victor
TTITLE11=Living In The Real World
TTITLE12=Die Young Stay Pretty (Live)
TTITLE13=Seven Rooms Of Gloom (Live)
TTITLE14=Heroes (Live)
TTITLE15=Ring Of Fire (Live)
EXTD=YEAR: 1979
EXTT0=
EXTT1=
EXTT2=
EXTT3=
EXTT4=
EXTT5=
EXTT6=
EXTT7=
EXTT8=
EXTT9=
EXTT10=
EXTT11=
EXTT12=
EXTT13=
EXTT14=
EXTT15=
PLAYORDER=
